<svg width="357" height="341" viewBox="0 0 357 341" fill="none" xmlns="http://www.w3.org/2000/svg">
<path fill-rule="evenodd" clip-rule="evenodd" d="M287.582 320.871V309.004L297.463 303.077L307.339 309.004V320.871L299.23 325.737V341H295.693V325.739L287.582 320.871ZM287.502 341V330.64L279.403 325.777V304.079L297.465 293.235L315.52 304.082V325.765L307.403 330.64V341H311.978L310.94 340.376V332.762L317.279 328.955L323.622 332.767V340.376L322.584 341H327.16V330.64L319.058 325.777V304.079L337.12 293.235L355.178 304.082V325.765L347.06 330.64V341H351.633L350.597 340.376V332.767L356.938 328.955L357 328.992V300.847L356.934 300.887L338.885 290.052V268.362L346.992 263.494V251.626L337.118 245.7L327.239 251.626V263.494L335.35 268.362V290.05L317.292 300.894L299.23 290.052V268.362L307.339 263.494V251.626L297.463 245.7L287.582 251.626V263.494L295.693 268.362V290.05L277.637 300.894L259.573 290.05V268.362L267.684 263.494V251.626L257.803 245.7L247.927 251.626V263.494L256.036 268.362V290.05L237.973 300.894L219.918 290.052V268.362L228.027 263.494V251.626L218.148 245.7L208.272 251.626V263.494L216.381 268.362V290.05L198.323 300.894L180.279 290.062V268.362L188.385 263.494V251.626L178.511 245.7L168.633 251.626V263.494L176.741 268.362V290.05L158.684 300.894L140.622 290.052V268.362L148.73 263.494V251.626L138.854 245.7L128.975 251.626V263.494L137.084 268.362V290.05L119.029 300.894L100.967 290.05V268.362L109.075 263.494V251.626L99.199 245.7L89.3204 251.626V263.494L97.4291 268.362V290.05L79.3692 300.894L61.3115 290.052V268.362L69.4202 263.494V251.626L59.5417 245.7L49.6654 251.626V263.494L57.7741 268.362V290.05L39.7164 300.894L21.6542 290.05V268.362L29.7629 263.494V251.626L19.8866 245.7L10.0104 251.626V263.494L18.1168 268.362V290.05L0.0682048 300.887L0 300.846V328.991L0.0591164 328.955L6.39792 332.767V340.376L5.3619 341H9.93538V330.64L1.82671 325.77V304.082L19.8866 293.235L37.9465 304.082V325.765L29.8288 330.64V341H34.4045L33.3662 340.376V332.767L39.7073 328.955L46.0484 332.767V340.376L45.0101 341H49.5836V330.64L41.484 325.775V304.079L59.5439 293.235L77.6016 304.079V325.765L69.4838 330.64V341H74.0596L73.0213 340.376V332.767L79.3624 328.955L85.7034 332.767V340.376L84.6651 341H89.2409V330.64L81.139 325.775V304.082L99.199 293.235L117.257 304.082V325.765L109.141 330.64V341H113.717L112.679 340.376V332.762L119.017 328.955L125.358 332.767V340.376L124.32 341H128.896V330.64L120.794 325.775V304.079L138.856 293.235L156.912 304.082V325.765L148.796 330.64V341H153.372L152.334 340.376V332.767L158.675 328.955L165.013 332.767V340.376L163.977 341H168.551V330.64L160.449 325.775V304.079L178.504 293.24L196.553 304.082V325.777L188.451 330.64V341H193.027L191.989 340.376V332.767L198.332 328.955L204.671 332.762V340.376L203.632 341H208.206V330.64L200.09 325.765V304.079L218.15 293.235L236.208 304.079V325.765L228.093 330.64V341H232.668L231.63 340.376V332.762L237.969 328.955L244.312 332.767V340.376L243.274 341H247.85V330.64L239.745 325.775V304.082L257.803 293.235L275.865 304.082V325.765L267.748 330.64V341H272.323L271.285 340.376V332.762L277.624 328.955L283.967 332.767V340.376L282.929 341H287.502ZM259.573 341V325.739L267.684 320.871V309.004L257.803 303.077L247.927 309.004V320.871L256.036 325.737V341H259.573ZM219.918 341V325.739L228.027 320.871V309.004L218.148 303.077L208.272 309.004V320.871L216.381 325.737V341H219.918ZM180.279 341V325.737L188.385 320.871V309.004L178.511 303.077L168.633 309.004V320.871L176.741 325.739V341H180.279ZM140.622 341V325.739L148.73 320.871V309.004L138.854 303.077L128.975 309.004V320.871L137.084 325.739V341H140.622ZM100.967 341V325.739L109.075 320.871V309.004L99.199 303.077L89.3204 309.004V320.871L97.4291 325.739V341H100.967ZM61.3115 341V325.739L69.4202 320.871V309.004L59.5417 303.077L49.6654 309.004V320.871L57.7741 325.737V341H61.3115ZM21.6542 341V325.739L29.7629 320.871V309.004L19.8866 303.077L10.0104 309.004V320.871L18.1168 325.739V341H21.6542ZM0 291.071L0.0659327 291.111L9.9422 285.184V273.317L1.83353 268.451V246.763L19.8934 235.917L37.9534 246.763V268.447L29.8356 273.317V285.184L39.7141 291.111L49.5904 285.184V273.317L41.4908 268.454V246.761L59.5507 235.917L77.6084 246.761V268.444L69.4906 273.317V285.184L79.3692 291.111L89.2477 285.184V273.317L81.1459 268.456V246.763L99.2058 235.917L117.263 246.763V268.444L109.148 273.317V285.184L119.024 291.111L128.903 285.184V273.317L120.801 268.456V246.761L138.863 235.917L156.918 246.763V268.447L148.803 273.317V285.184L158.681 291.111L168.558 285.184V273.317L160.456 268.454V246.761L178.511 235.921L196.56 246.763V268.456L188.458 273.317V285.184L198.339 291.111L208.213 285.184V273.317L200.097 268.444V246.761L218.157 235.917L236.215 246.761V268.447L228.099 273.317V285.184L237.976 291.111L247.856 285.184V273.317L239.752 268.454V246.763L257.81 235.917L275.872 246.763V268.444L267.754 273.317V285.184L277.631 291.111L287.511 285.184V273.317L279.41 268.456V246.761L297.472 235.917L315.527 246.763V268.444L307.409 273.317V285.184L317.286 291.111L327.167 285.184V273.317L319.065 268.456V246.761L337.127 235.917L355.184 246.763V268.447L347.067 273.317V285.184L356.945 291.111L357 291.078V286.832L356.945 286.864L350.604 283.058V275.444L356.945 271.637L357 271.67V243.34L356.782 243.471L338.892 232.731V211.041L346.999 206.17V194.308L337.125 188.381L327.246 194.308V206.17L335.357 211.041V232.729L317.299 243.575L299.237 232.731V211.041L307.346 206.17V194.308L297.47 188.381L287.591 194.308V206.17L295.7 211.041V232.729L277.644 243.575L259.58 232.731V211.041L267.691 206.17V194.308L257.81 188.381L247.934 194.308V206.17L256.042 211.041V232.731L237.98 243.575L219.925 232.731V211.041L228.033 206.17V194.308L218.155 188.381L208.279 194.308V206.17L216.387 211.041V232.729L198.33 243.575L180.286 232.743V211.041L188.392 206.17V194.308L178.518 188.381L168.637 194.308V206.17L176.748 211.041V232.729L158.691 243.575L140.628 232.731V211.041L148.737 206.17V194.308L138.861 188.381L128.982 194.308V206.17L137.091 211.041V232.729L119.036 243.575L100.973 232.731V211.041L109.082 206.17V194.308L99.2058 188.381L89.3272 194.308V206.17L97.4359 211.041V232.731L79.376 243.575L61.3183 232.731V211.041L69.427 206.17V194.308L59.5485 188.381L49.6722 194.308V206.17L57.7809 211.041V232.729L39.7232 243.575L21.661 232.731V211.041L29.7697 206.17V194.308L19.8934 188.381L10.0172 194.308V206.17L18.1258 211.041V232.731L0.227242 243.476L0 243.34V271.676L0.0659327 271.637L6.40474 275.444V283.058L0.0659327 286.864L0 286.825V291.071ZM0 233.973L0.0659327 234.012L9.9422 228.083V216.221L1.83353 211.35V189.662L19.8934 178.816L37.9534 189.662V211.348L29.8356 216.221V228.083L39.7141 234.012L49.5904 228.083V216.221L41.4908 211.355V189.66L59.5507 178.818L77.6084 189.66V211.346L69.4906 216.221V228.083L79.3692 234.012L89.2477 228.083V216.221L81.1459 211.357V189.662L99.2058 178.816L117.263 189.662V211.346L109.148 216.221V228.083L119.024 234.012L128.903 228.083V216.221L120.801 211.357V189.66L138.863 178.818L156.918 189.662V211.348L148.803 216.221V228.083L158.681 234.012L168.558 228.083V216.221L160.456 211.355V189.66L178.511 178.823L196.56 189.662V211.357L188.458 216.221V228.083L198.339 234.012L208.213 228.083V216.221L200.097 211.346V189.66L218.157 178.818L236.215 189.66V211.348L228.099 216.221V228.083L237.976 234.012L247.856 228.083V216.221L239.752 211.355V189.662L257.81 178.816L275.872 189.662V211.346L267.754 216.221V228.083L277.631 234.012L287.511 228.083V216.221L279.41 211.357V189.66L297.472 178.818L315.527 189.662V211.346L307.409 216.221V228.083L317.286 234.012L327.167 228.083V216.221L319.065 211.357V189.66L337.127 178.818L355.184 189.662V211.348L347.067 216.221V228.083L356.945 234.012L357 233.979V229.733L356.945 229.766L350.604 225.956V218.347L356.945 214.536L357 214.569V186.241L356.782 186.373L338.892 175.632V153.942L346.999 149.074V137.209L337.125 131.28L327.246 137.209V149.074L335.357 153.942V175.63L317.299 186.474L299.237 175.632V153.942L307.346 149.074V137.209L297.47 131.28L287.591 137.209V149.074L295.7 153.942V175.63L277.644 186.474L259.58 175.63V153.942L267.691 149.074V137.209L257.81 131.28L247.934 137.209V149.074L256.042 153.942V175.632L237.98 186.474L219.925 175.632V153.942L228.033 149.074V137.209L218.155 131.28L208.279 137.209V149.074L216.387 153.942V175.63L198.33 186.474L180.286 175.642V153.942L188.392 149.074V137.209L178.518 131.28L168.637 137.209V149.074L176.748 153.942V175.63L158.691 186.474L140.628 175.632V153.942L148.737 149.074V137.209L138.861 131.28L128.982 137.209V149.074L137.091 153.942V175.63L119.036 186.474L100.973 175.632V153.942L109.082 149.074V137.209L99.2058 131.28L89.3272 137.209V149.074L97.4359 153.942V175.632L79.376 186.474L61.3183 175.632V153.942L69.427 149.074V137.209L59.5485 131.28L49.6722 137.209V149.074L57.7809 153.942V175.63L39.7232 186.474L21.661 175.632V153.942L29.7697 149.074V137.209L19.8934 131.28L10.0172 137.209V149.074L18.1258 153.942V175.632L0.227242 186.377L0 186.241V214.575L0.0659327 214.536L6.40474 218.347V225.956L0.0659327 229.766L0 229.726V233.973ZM0 176.448L0.0659327 176.488L9.9422 170.559V158.694L1.83353 153.826V132.138L19.8934 121.291L37.9534 132.138V153.821L29.8356 158.694V170.559L39.7141 176.488L49.5904 170.559V158.694L41.4908 153.831V132.138L59.5485 121.294L77.6084 132.138V153.821L69.4906 158.694V170.559L79.3692 176.488L89.2477 170.559V158.694L81.1459 153.831V132.138L99.2058 121.291L117.263 132.138V153.821L109.148 158.694V170.559L119.024 176.488L128.903 170.559V158.694L120.801 153.831V132.138L138.861 121.294L156.918 132.138V153.821L148.803 158.694V170.559L158.681 176.488L168.558 170.559V158.694L160.456 153.831V132.138L178.509 121.298L196.56 132.138V153.833L188.458 158.694V170.559L198.339 176.488L208.213 170.559V158.694L200.097 153.821V132.138L218.155 121.294L236.215 132.138V153.821L228.099 158.694V170.559L237.976 176.488L247.856 170.559V158.694L239.752 153.831V132.138L257.81 121.291L275.872 132.138V153.821L267.754 158.694V170.559L277.631 176.488L287.511 170.559V158.694L279.41 153.833V132.138L297.47 121.294L315.527 132.138V153.821L307.409 158.694V170.559L317.286 176.488L327.167 170.559V158.694L319.065 153.833V132.138L337.125 121.294L355.184 132.138V153.821L347.067 158.694V170.559L356.945 176.488L357 176.455V172.209L356.945 172.241L350.604 168.432V160.821L356.945 157.012L357 157.044V128.716L356.779 128.848L338.892 118.106V96.4153L346.999 91.5474V79.6848L337.125 73.7535L327.246 79.6848V91.5474L335.357 96.4153V118.108L317.297 128.952L299.237 118.106V96.4153L307.346 91.5474V79.6848L297.47 73.7535L287.591 79.6848V91.5474L295.7 96.4153V118.108L277.64 128.952L259.58 118.108V96.4153L267.691 91.5474V79.6848L257.81 73.7535L247.934 79.6848V91.5474L256.042 96.4153V118.108L237.985 128.952L219.925 118.106V96.4153L228.033 91.5474V79.6848L218.155 73.7535L208.279 79.6848V91.5474L216.387 96.4153V118.108L198.327 128.952L180.286 118.118V96.4153L188.392 91.5474V79.6848L178.518 73.7535L168.637 79.6848V91.5474L176.748 96.4153V118.108L158.688 128.952L140.628 118.106V96.4153L148.737 91.5474V79.6848L138.861 73.7535L128.982 79.6848V91.5474L137.091 96.4153V118.108L119.033 128.952L100.973 118.108V96.4153L109.082 91.5474V79.6848L99.2058 73.7535L89.3272 79.6848V91.5474L97.4359 96.4153V118.108L79.3783 128.952L61.3183 118.106V96.4153L69.427 91.5474V79.6848L59.5485 73.7535L49.6722 79.6848V91.5474L57.7809 96.4153V118.108L39.721 128.952L21.661 118.108V96.4153L29.7697 91.5474V79.6848L19.8934 73.7535L10.0172 79.6848V91.5474L18.1258 96.4153V118.108L0.231786 128.851L0 128.712V157.051L0.0659327 157.012L6.40474 160.821V168.432L0.0659327 172.241L0 172.202V176.448ZM0 119.924L0.0659327 119.963L9.9422 114.032V102.172L1.83353 97.3015V75.6109L19.8934 64.7667L37.9534 75.6109V97.2967L29.8356 102.172V114.032L39.7141 119.963L49.5904 114.032V102.172L41.4908 97.3062V75.6132L59.5485 64.7667L77.6084 75.6132V97.2967L69.4906 102.172V114.032L79.3692 119.963L89.2477 114.032V102.172L81.1459 97.3062V75.6109L99.2058 64.7667L117.263 75.6109V97.2967L109.148 102.172V114.032L119.024 119.963L128.903 114.032V102.172L120.801 97.3062V75.6132L138.861 64.7667L156.918 75.6109V97.2967L148.803 102.172V114.032L158.681 119.963L168.558 114.032V102.172L160.456 97.3062V75.6132L178.509 64.7715L196.56 75.6109V97.3086L188.458 102.172V114.032L198.339 119.963L208.213 114.032V102.172L200.097 97.2967V75.6132L218.155 64.7667L236.215 75.6132V97.2967L228.099 102.172V114.032L237.976 119.963L247.856 114.032V102.172L239.752 97.3062V75.6109L257.81 64.7667L275.872 75.6109V97.2967L267.754 102.172V114.032L277.631 119.963L287.511 114.032V102.172L279.41 97.3086V75.6132L297.47 64.7667L315.527 75.6109V97.2967L307.409 102.172V114.032L317.286 119.963L327.167 114.032V102.172L319.065 97.3086V75.6132L337.125 64.7667L355.184 75.6109V97.2967L347.067 102.172V114.032L356.945 119.963L357 119.93V115.684L356.945 115.717L350.604 111.91V104.294L356.945 100.487L357 100.52V72.1927L356.782 72.3238L338.892 61.5813V39.8907L346.999 35.0252V23.1602L337.125 17.2312L327.246 23.1602V35.0252L335.357 39.8907V61.5813L317.297 72.4254L299.237 61.5813V39.8907L307.346 35.0252V23.1602L297.47 17.2312L287.591 23.1602V35.0252L295.7 39.8907V61.5813L277.64 72.4254L259.58 61.5813V39.8907L267.691 35.0252V23.1602L257.81 17.2312L247.934 23.1602V35.0252L256.042 39.8907V61.5813L237.985 72.4254L219.925 61.5813V39.8907L228.033 35.0252V23.1602L218.155 17.2312L208.279 23.1602V35.0252L216.387 39.8907V61.5813L198.327 72.4254L180.286 61.5908V39.8907L188.392 35.0252V23.1602L178.518 17.2312L168.637 23.1602V35.0252L176.748 39.8907V61.5813L158.688 72.4254L140.628 61.5813V39.8907L148.737 35.0252V23.1602L138.861 17.2312L128.982 23.1602V35.0252L137.091 39.8907V61.5813L119.033 72.4254L100.973 61.5813V39.8907L109.082 35.0252V23.1602L99.2058 17.2312L89.3272 23.1602V35.0252L97.4359 39.8907V61.5813L79.3783 72.4254L61.3183 61.5813V39.8907L69.427 35.0252V23.1602L59.5485 17.2312L49.6722 23.1602V35.0252L57.7809 39.8907V61.5813L39.721 72.4254L21.661 61.5813V39.8907L29.7697 35.0252V23.1602L19.8934 17.2312L10.0172 23.1602V35.0252L18.1258 39.8907V61.5813L0.229514 72.3286L0 72.1908V100.526L0.0659327 100.487L6.40474 104.294V111.91L0.0659327 115.717L0 115.677V119.924ZM0 63.6874L0.0659327 63.727L9.9422 57.7957V45.9331L1.83353 41.0628V19.3745L19.8934 8.53043L37.9534 19.3745V41.0604L29.8356 45.9331V57.7957L39.7141 63.727L49.5904 57.7957V45.9331L41.4908 41.0675V19.3745L59.5485 8.53043L77.6084 19.3745V41.0581L69.4906 45.9331V57.7957L79.3692 63.727L89.2477 57.7957V45.9331L81.1459 41.0675V19.3745L99.2058 8.53043L117.263 19.3745V41.0581L109.148 45.9331V57.7957L119.024 63.727L128.903 57.7957V45.9331L120.801 41.0675V19.3745L138.861 8.53043L156.918 19.3745V41.0604L148.803 45.9331V57.7957L158.681 63.727L168.558 57.7957V45.9331L160.456 41.0675V19.3745L178.509 8.53516L196.56 19.3745V41.0699L188.458 45.9331V57.7957L198.339 63.727L208.213 57.7957V45.9331L200.097 41.0581V19.3745L218.155 8.53043L236.215 19.3745V41.0604L228.099 45.9331V57.7957L237.976 63.727L247.856 57.7957V45.9331L239.752 41.0675V19.3745L257.81 8.53043L275.872 19.3745V41.0581L267.754 45.9331V57.7957L277.631 63.727L287.511 57.7957V45.9331L279.41 41.0699V19.3745L297.47 8.53043L315.527 19.3745V41.0581L307.409 45.9331V57.7957L317.286 63.727L327.167 57.7957V45.9331L319.065 41.0699V19.3745L337.125 8.53043L355.184 19.3745V41.0604L347.067 45.9331V57.7957L356.945 63.727L357 63.6941V59.4477L356.945 59.4806L350.604 55.6713V48.0575L356.945 44.2482L357 44.2811V15.954L356.782 16.0852L338.892 5.34265V0H335.357V5.34265L317.297 16.1868L299.237 5.34265V0H295.7V5.34265L277.64 16.1868L259.58 5.34501V0H256.042V5.34501L237.985 16.1868L219.925 5.34265V0H216.387V5.34265L198.327 16.1868L180.286 5.3521V0H176.748V5.34265L158.688 16.1868L140.628 5.34265V0H137.091V5.34265L119.033 16.1868L100.973 5.34501V0H97.4359V5.34501L79.3783 16.1868L61.3183 5.34265V0H57.7809V5.34265L39.721 16.1868L21.661 5.34501V0H18.1258V5.34501L0.229514 16.0899L0 15.9521V44.2878L0.0659327 44.2482L6.40474 48.0575V55.6713L0.0659327 59.4806L0 59.4409V63.6874ZM0 7.52907L0.0659327 7.56866L9.9422 1.63736V0H5.59771L0.0659327 3.32223L0 3.28264V7.52907ZM29.8356 0V1.63736L39.7141 7.56866L49.5904 1.63736V0H45.2479L39.7141 3.32223L34.1804 0H29.8356ZM69.4906 0V1.63736L79.3692 7.56866L89.2477 1.63736V0H84.9029L79.3692 3.32223L73.8354 0H69.4906ZM109.148 0V1.63736L119.024 7.56866L128.903 1.63736V0H124.558L119.024 3.32223L113.492 0H109.148ZM148.803 0V1.63736L158.681 7.56866L168.558 1.63736V0H164.215L158.681 3.32223L153.148 0H148.803ZM188.458 0V1.63736L198.339 7.56866L208.213 1.63736V0H203.871L198.339 3.32223L192.803 0H188.458ZM228.099 0V1.63736L237.976 7.56866L247.856 1.63736V0H243.511L237.976 3.32223L232.444 0H228.099ZM267.754 0V1.63736L277.631 7.56866L287.511 1.63736V0H283.166L277.631 3.32223L272.099 0H267.754ZM307.409 0V1.63736L317.286 7.56866L327.167 1.63736V0H322.821L317.286 3.32223L311.754 0H307.409ZM347.067 0V1.63736L356.945 7.56866L357 7.53578V3.28935L356.945 3.32223L351.411 0H347.067ZM338.885 341V325.737L346.992 320.871V309.004L337.118 303.077L327.239 309.004V320.871L335.35 325.739V341H338.885ZM297.463 322.552L303.802 318.745V311.131L297.463 307.324L291.119 311.131V318.745L297.463 322.552ZM99.199 322.552L105.538 318.745V311.131L99.199 307.324L92.8579 311.131V318.745L99.199 322.552ZM257.803 322.552L264.147 318.745V311.131L257.803 307.324L251.464 311.131V318.745L257.803 322.552ZM19.8866 322.552L26.2254 318.745V311.131L19.8866 307.324L13.5456 311.131V318.745L19.8866 322.552ZM59.5417 322.552L65.8827 318.745V311.131L59.5417 307.324L53.2028 311.131V318.745L59.5417 322.552ZM218.148 322.552L224.491 318.745V311.131L218.148 307.324L211.809 311.131V318.745L218.148 322.552ZM138.854 322.552L145.195 318.745V311.131L138.854 307.324L132.513 311.131V318.745L138.854 322.552ZM178.511 322.552L184.85 318.745V311.131L178.511 307.324L172.17 311.131V318.745L178.511 322.552ZM46.0552 55.6713V48.0575L39.7141 44.2482L33.3731 48.0575V55.6713L39.7141 59.4806L46.0552 55.6713ZM85.7102 55.6713V48.0575L79.3692 44.2482L73.0281 48.0575V55.6713L79.3692 59.4806L85.7102 55.6713ZM125.365 55.6713V48.0575L119.024 44.2482L112.685 48.0575V55.6713L119.024 59.4806L125.365 55.6713ZM165.023 55.6713V48.0575L158.681 44.2482L152.34 48.0575V55.6713L158.681 59.4806L165.023 55.6713ZM204.678 55.6713V48.0575L198.339 44.2482L191.995 48.0575V55.6713L198.339 59.4806L204.678 55.6713ZM244.319 55.6713V48.0575L237.976 44.2482L231.637 48.0575V55.6713L237.976 59.4806L244.319 55.6713ZM283.974 55.6713V48.0575L277.631 44.2482L271.292 48.0575V55.6713L277.631 59.4806L283.974 55.6713ZM323.629 55.6713V48.0575L317.286 44.2482L310.947 48.0575V55.6713L317.286 59.4806L323.629 55.6713ZM13.5524 25.2846V32.9008L19.8934 36.7077L26.2323 32.9008V25.2846L19.8934 21.4777L13.5524 25.2846ZM46.0552 111.91V104.294L39.7141 100.487L33.3731 104.294V111.91L39.7141 115.717L46.0552 111.91ZM53.2097 25.2846V32.9008L59.5485 36.7077L65.8895 32.9008V25.2846L59.5485 21.4777L53.2097 25.2846ZM85.7102 111.91V104.294L79.3692 100.487L73.0281 104.294V111.91L79.3692 115.717L85.7102 111.91ZM92.8647 25.2846V32.9008L99.2058 36.7077L105.545 32.9008V25.2846L99.2058 21.4777L92.8647 25.2846ZM125.365 111.91V104.294L119.024 100.487L112.685 104.294V111.91L119.024 115.717L125.365 111.91ZM132.52 25.2846V32.9008L138.861 36.7077L145.202 32.9008V25.2846L138.861 21.4777L132.52 25.2846ZM165.023 111.91V104.294L158.681 100.487L152.34 104.294V111.91L158.681 115.717L165.023 111.91ZM172.175 25.2846V32.9008L178.518 36.7077L184.857 32.9008V25.2846L178.518 21.4777L172.175 25.2846ZM204.678 111.91V104.294L198.339 100.487L191.995 104.294V111.91L198.339 115.717L204.678 111.91ZM211.816 25.2846V32.9008L218.155 36.7077L224.498 32.9008V25.2846L218.155 21.4777L211.816 25.2846ZM244.319 111.91V104.294L237.976 100.487L231.637 104.294V111.91L237.976 115.717L244.319 111.91ZM251.471 25.2846V32.9008L257.81 36.7077L264.153 32.9008V25.2846L257.81 21.4777L251.471 25.2846ZM283.974 111.91V104.294L277.631 100.487L271.292 104.294V111.91L277.631 115.717L283.974 111.91ZM291.126 25.2846V32.9008L297.47 36.7077L303.808 32.9008V25.2846L297.47 21.4777L291.126 25.2846ZM323.629 111.91V104.294L317.286 100.487L310.947 104.294V111.91L317.286 115.717L323.629 111.91ZM330.783 25.2846V32.9008L337.125 36.7077L343.463 32.9008V25.2846L337.125 21.4777L330.783 25.2846ZM13.5524 81.8092V89.423L19.8934 93.2299L26.2323 89.423V81.8092L19.8934 77.9999L13.5524 81.8092ZM46.0552 168.432V160.821L39.7141 157.012L33.3731 160.821V168.432L39.7141 172.241L46.0552 168.432ZM53.2097 81.8092V89.423L59.5485 93.2299L65.8895 89.423V81.8092L59.5485 77.9999L53.2097 81.8092ZM85.7102 168.432V160.821L79.3692 157.012L73.0281 160.821V168.432L79.3692 172.241L85.7102 168.432ZM92.8647 81.8092V89.423L99.2058 93.2299L105.545 89.423V81.8092L99.2058 77.9999L92.8647 81.8092ZM125.365 168.432V160.821L119.024 157.012L112.685 160.821V168.432L119.024 172.241L125.365 168.432ZM132.52 81.8092V89.423L138.861 93.2299L145.202 89.423V81.8092L138.861 77.9999L132.52 81.8092ZM165.023 168.432V160.821L158.681 157.012L152.34 160.821V168.432L158.681 172.241L165.023 168.432ZM172.175 81.8092V89.423L178.518 93.2299L184.857 89.423V81.8092L178.518 77.9999L172.175 81.8092ZM204.678 168.432V160.821L198.339 157.012L191.995 160.821V168.432L198.339 172.241L204.678 168.432ZM211.816 81.8092V89.423L218.155 93.2299L224.498 89.423V81.8092L218.155 77.9999L211.816 81.8092ZM244.319 168.432V160.821L237.976 157.012L231.637 160.821V168.432L237.976 172.241L244.319 168.432ZM251.471 81.8092V89.423L257.81 93.2299L264.153 89.423V81.8092L257.81 77.9999L251.471 81.8092ZM283.974 168.432V160.821L277.631 157.012L271.292 160.821V168.432L277.631 172.241L283.974 168.432ZM291.126 81.8092V89.423L297.47 93.2299L303.808 89.423V81.8092L297.47 77.9999L291.126 81.8092ZM323.629 168.432V160.821L317.286 157.012L310.947 160.821V168.432L317.286 172.241L323.629 168.432ZM330.783 81.8092V89.423L337.125 93.2299L343.463 89.423V81.8092L337.125 77.9999L330.783 81.8092ZM13.5524 139.333V146.95L19.8934 150.756L26.2323 146.95V139.333L19.8934 135.526L13.5524 139.333ZM46.0552 225.956V218.347L39.7141 214.536L33.3731 218.347V225.956L39.7141 229.766L46.0552 225.956ZM53.2097 146.95L59.5485 150.756L65.8895 146.95V139.333L59.5485 135.526L53.2097 139.333V146.95ZM85.7102 225.956V218.347L79.3692 214.536L73.0281 218.347V225.956L79.3692 229.766L85.7102 225.956ZM92.8647 139.333V146.95L99.2058 150.756L105.545 146.95V139.333L99.2058 135.526L92.8647 139.333ZM125.365 225.956V218.347L119.024 214.536L112.685 218.345V225.956L119.024 229.766L125.365 225.956ZM132.52 146.95L138.861 150.756L145.202 146.95V139.333L138.861 135.526L132.52 139.333V146.95ZM165.023 225.956V218.347L158.681 214.536L152.34 218.347V225.956L158.681 229.766L165.023 225.956ZM172.175 139.333V146.95L178.518 150.756L184.857 146.95V139.333L178.518 135.526L172.175 139.333ZM204.678 225.956V218.345L198.339 214.536L191.995 218.347V225.956L198.339 229.766L204.678 225.956ZM211.816 146.95L218.155 150.756L224.498 146.95V139.333L218.155 135.526L211.816 139.333V146.95ZM244.319 225.956V218.347L237.976 214.536L231.637 218.345V225.956L237.976 229.766L244.319 225.956ZM251.471 139.333V146.95L257.81 150.756L264.153 146.95V139.333L257.81 135.526L251.471 139.333ZM283.974 225.956V218.347L277.631 214.536L271.292 218.345V225.956L277.631 229.766L283.974 225.956ZM291.126 146.95L297.47 150.756L303.808 146.95V139.333L297.47 135.526L291.126 139.333V146.95ZM323.629 225.956V218.347L317.286 214.536L310.947 218.345V225.956L317.286 229.766L323.629 225.956ZM330.783 146.95L337.125 150.756L343.463 146.95V139.333L337.125 135.526L330.783 139.333V146.95ZM13.5524 196.435V204.044L19.8934 207.858L26.2323 204.044V196.435L19.8934 192.628L13.5524 196.435ZM46.0552 283.058V275.444L39.7141 271.637L33.3731 275.444V283.058L39.7141 286.864L46.0552 283.058ZM53.2097 204.048L59.5485 207.858L65.8895 204.044V196.435L59.5485 192.628L53.2097 196.435V204.048ZM85.7102 283.058V275.444L79.3692 271.637L73.0281 275.444V283.058L79.3692 286.864L85.7102 283.058ZM92.8647 196.435V204.044L99.2058 207.858L105.545 204.044V196.435L99.2058 192.628L92.8647 196.435ZM125.365 283.058V275.444L119.024 271.637L112.685 275.444V283.058L119.024 286.864L125.365 283.058ZM132.52 204.044L138.861 207.858L145.202 204.044V196.435L138.861 192.628L132.52 196.435V204.044ZM165.023 283.058V275.444L158.681 271.637L152.34 275.444V283.058L158.681 286.864L165.023 283.058ZM172.175 196.435V204.044L178.518 207.858L184.857 204.048V196.435L178.518 192.628L172.175 196.435ZM204.678 283.058V275.444L198.339 271.637L191.995 275.444V283.058L198.339 286.864L204.678 283.058ZM211.816 204.048L218.155 207.858L224.498 204.044V196.435L218.155 192.628L211.816 196.435V204.048ZM244.319 283.058V275.444L237.976 271.637L231.637 275.444V283.058L237.976 286.864L244.319 283.058ZM251.471 196.435V204.048L257.81 207.858L264.153 204.044V196.435L257.81 192.628L251.471 196.435ZM283.974 283.058V275.444L277.631 271.637L271.292 275.444V283.058L277.631 286.864L283.974 283.058ZM291.126 204.044L297.47 207.858L303.808 204.048V196.435L297.47 192.628L291.126 196.435V204.044ZM323.629 283.058V275.444L317.286 271.637L310.947 275.444V283.058L317.286 286.864L323.629 283.058ZM330.783 204.044L337.125 207.858L343.463 204.048V196.435L337.125 192.628L330.783 196.435V204.044ZM337.118 322.552L343.457 318.745V311.131L337.118 307.324L330.774 311.131V318.745L337.118 322.552ZM13.5456 253.753V261.367L19.8866 265.176L26.2254 261.367V253.753L19.8866 249.946L13.5456 253.753ZM53.2028 261.367L59.5417 265.176L65.8827 261.367V253.753L59.5417 249.946L53.2028 253.753V261.367ZM92.8579 253.753V261.367L99.199 265.176L105.538 261.367V253.753L99.199 249.946L92.8579 253.753ZM132.513 261.367L138.854 265.176L145.195 261.367V253.753L138.854 249.946L132.513 253.753V261.367ZM172.17 253.753V261.367L178.511 265.176L184.85 261.367V253.753L178.511 249.946L172.17 253.753ZM211.809 261.367L218.148 265.176L224.491 261.367V253.753L218.148 249.946L211.809 253.753V261.367ZM251.464 253.753V261.367L257.803 265.176L264.147 261.367V253.753L257.803 249.946L251.464 253.753ZM291.119 261.367L297.463 265.176L303.802 261.367V253.753L297.463 249.946L291.119 253.753V261.367ZM330.774 261.367L337.118 265.176L343.457 261.367V253.753L337.118 249.946L330.774 253.753V261.367Z" fill="#F5F5F5"/>
</svg>
